# xmcd
#
# Track frame offsets: 
#        150
#        17733
#        36076
#        52608
#        67850
#        83215
#        100746
#        117676
#        135418
#        151254
#
# Disc length: 2283 seconds
#
# Revision: 0
# Processed by: cddbd v1.5.2PL0 Copyright (c) Steve Scherf et al.
# Submitted via: ExactAudioCopyFreeDBPlugin 1.0
#
DISCID=7108e90a
DTITLE=Goapele - Strong As Glass
DYEAR=2014
DGENRE=R&B
TTITLE0=Strong As Glass
TTITLE1=Hey Boy Feat. Snoop Dogg
TTITLE2=Insanity
TTITLE3=Perfect
TTITLE4=What In The World
TTITLE5=My Love Feat. Eric Benét
TTITLE6=Powerful
TTITLE7=Some Call It Love
TTITLE8=Last Days
TTITLE9=Truth Is
EXTD=
EXTT0=
EXTT1=
EXTT2=
EXTT3=
EXTT4=
EXTT5=
EXTT6=
EXTT7=
EXTT8=
EXTT9=
PLAYORDER=
